<svg width="32" height="32" viewBox="0 0 32 32" fill="none" xmlns="http://www.w3.org/2000/svg">
<path d="M30.08 16.3333C30.08 15.2933 29.9867 14.2933 29.8133 13.3333H16V19.0067H23.8933C23.5533 20.84 22.52 22.3933 20.9667 23.4333V27.1133H25.7067C28.48 24.56 30.08 20.8 30.08 16.3333Z" fill="#4285F4"/>
<path d="M16.0002 30.6667C19.9602 30.6667 23.2802 29.3533 25.7069 27.1133L20.9669 23.4333C19.6536 24.3133 17.9736 24.8333 16.0002 24.8333C12.1802 24.8333 8.94689 22.2533 7.79355 18.7867H2.89355V22.5867C5.30689 27.38 10.2669 30.6667 16.0002 30.6667Z" fill="#34A853"/>
<path d="M7.7935 18.7867C7.50016 17.9067 7.3335 16.9667 7.3335 16C7.3335 15.0333 7.50016 14.0933 7.7935 13.2133V9.41333H2.8935C1.86683 11.4571 1.33259 13.7128 1.3335 16C1.3335 18.3667 1.90016 20.6067 2.8935 22.5867L7.7935 18.7867Z" fill="#FBBC05"/>
<path d="M16.0002 7.16668C18.1536 7.16668 20.0869 7.90668 21.6069 9.36001L25.8136 5.15334C23.2736 2.78668 19.9536 1.33334 16.0002 1.33334C10.2669 1.33334 5.30689 4.62001 2.89355 9.41334L7.79355 13.2133C8.94689 9.74668 12.1802 7.16668 16.0002 7.16668Z" fill="#EA4335"/>
</svg>
